<svg width="390" height="391" viewBox="0 0 390 391" fill="none" xmlns="http://www.w3.org/2000/svg">
<line x1="0.296875" y1="196.539" x2="389.003" y2="196.539" stroke="#FFDD33"/>
<g filter="url(#filter0_b_1921_7984)">
<line x1="51.9141" y1="336.227" x2="337.118" y2="336.227" stroke="#FFDD33" stroke-width="3"/>
</g>
<g filter="url(#filter1_b_1921_7984)">
<line x1="334.516" y1="50.7891" x2="334.516" y2="336.943" stroke="#FFDD33" stroke-width="3"/>
</g>
<g filter="url(#filter2_b_1921_7984)">
<line x1="51.7969" y1="52.2656" x2="337.001" y2="52.2656" stroke="#FFDD33" stroke-width="3"/>
</g>
<line x1="196.219" y1="0.507813" x2="196.219" y2="390.508" stroke="#FFDD33"/>
<line x1="195.208" y1="2.74533" x2="1.70792" y2="196.706" stroke="#FFDD33" stroke-width="2"/>
<line x1="1.70399" y1="196.29" x2="196.403" y2="389.284" stroke="#FFDD33" stroke-width="2"/>
<line y1="-1" x2="152.349" y2="-1" transform="matrix(-0.944531 0.328423 -0.348763 -0.937211 195.695 0.726562)" stroke="#FFDD33" stroke-width="2"/>
<path d="M388.68 195.367L335.454 336.457" stroke="#FFDD33" stroke-width="2"/>
<path d="M53.9297 337.219L1.45492 195.866" stroke="#FFDD33" stroke-width="2"/>
<line x1="335.941" y1="51.6609" x2="388.156" y2="196.527" stroke="#FFDD33" stroke-width="2"/>
<line x1="2.19708" y1="197.536" x2="53.0565" y2="52.6687" stroke="#FFDD33" stroke-width="2"/>
<path d="M195.695 1.72656L336 52" stroke="#FFDD33" stroke-width="2"/>
<path d="M336.492 335.961L195.7 389.999" stroke="#FFDD33" stroke-width="2"/>
<line y1="-1" x2="152.741" y2="-1" transform="matrix(-0.935326 -0.353786 0.375232 -0.926931 196.734 387.992)" stroke="#FFDD33" stroke-width="2"/>
<line x1="197.055" y1="388.296" x2="387.29" y2="196.296" stroke="#FFDD33" stroke-width="2"/>
<line y1="-1" x2="272.662" y2="-1" transform="matrix(-0.699585 -0.71455 0.712221 -0.701955 387.938 195.625)" stroke="#FFDD33" stroke-width="2"/>
<g opacity="0.7" filter="url(#filter3_b_1921_7984)">
<path d="M53.5625 51.7109L53.5625 337.865" stroke="#FFDD33" stroke-width="3"/>
</g>
<defs>
<filter id="filter0_b_1921_7984" x="47.9141" y="330.727" width="293.203" height="11" filterUnits="userSpaceOnUse" color-interpolation-filters="sRGB">
<feFlood flood-opacity="0" result="BackgroundImageFix"/>
<feGaussianBlur in="BackgroundImageFix" stdDeviation="2"/>
<feComposite in2="SourceAlpha" operator="in" result="effect1_backgroundBlur_1921_7984"/>
<feBlend mode="normal" in="SourceGraphic" in2="effect1_backgroundBlur_1921_7984" result="shape"/>
</filter>
<filter id="filter1_b_1921_7984" x="329.016" y="46.7891" width="11" height="294.156" filterUnits="userSpaceOnUse" color-interpolation-filters="sRGB">
<feFlood flood-opacity="0" result="BackgroundImageFix"/>
<feGaussianBlur in="BackgroundImageFix" stdDeviation="2"/>
<feComposite in2="SourceAlpha" operator="in" result="effect1_backgroundBlur_1921_7984"/>
<feBlend mode="normal" in="SourceGraphic" in2="effect1_backgroundBlur_1921_7984" result="shape"/>
</filter>
<filter id="filter2_b_1921_7984" x="47.7969" y="46.7656" width="293.203" height="11" filterUnits="userSpaceOnUse" color-interpolation-filters="sRGB">
<feFlood flood-opacity="0" result="BackgroundImageFix"/>
<feGaussianBlur in="BackgroundImageFix" stdDeviation="2"/>
<feComposite in2="SourceAlpha" operator="in" result="effect1_backgroundBlur_1921_7984"/>
<feBlend mode="normal" in="SourceGraphic" in2="effect1_backgroundBlur_1921_7984" result="shape"/>
</filter>
<filter id="filter3_b_1921_7984" x="48.0625" y="47.7109" width="11" height="294.156" filterUnits="userSpaceOnUse" color-interpolation-filters="sRGB">
<feFlood flood-opacity="0" result="BackgroundImageFix"/>
<feGaussianBlur in="BackgroundImageFix" stdDeviation="2"/>
<feComposite in2="SourceAlpha" operator="in" result="effect1_backgroundBlur_1921_7984"/>
<feBlend mode="normal" in="SourceGraphic" in2="effect1_backgroundBlur_1921_7984" result="shape"/>
</filter>
</defs>
</svg>
