<svg width="44" height="44" viewBox="0 0 44 44" fill="none" xmlns="http://www.w3.org/2000/svg">
<path d="M17.4141 25.2058C17.4141 26.9842 18.7891 28.4142 20.4758 28.4142H23.9224C25.389 28.4142 26.5807 27.1675 26.5807 25.6092C26.5807 23.9408 25.8474 23.3358 24.7657 22.9508L19.2474 21.0258C18.1657 20.6408 17.4324 20.0542 17.4324 18.3675C17.4324 16.8275 18.624 15.5625 20.0907 15.5625H23.5374C25.2241 15.5625 26.5991 16.9925 26.5991 18.7708" stroke="#292D32" stroke-width="3" stroke-linecap="round" stroke-linejoin="round"/>
<path d="M22 13.75V30.25" stroke="#292D32" stroke-width="3" stroke-linecap="round" stroke-linejoin="round"/>
<path d="M40.3307 21.9974C40.3307 32.1174 32.1174 40.3307 21.9974 40.3307C11.8774 40.3307 3.66406 32.1174 3.66406 21.9974C3.66406 11.8774 11.8774 3.66406 21.9974 3.66406" stroke="#292D32" stroke-width="3" stroke-linecap="round" stroke-linejoin="round"/>
<path d="M40.3333 10.9974V3.66406H33" stroke="#292D32" stroke-width="3" stroke-linecap="round" stroke-linejoin="round"/>
<path d="M31.1641 12.8307L40.3307 3.66406" stroke="#292D32" stroke-width="3" stroke-linecap="round" stroke-linejoin="round"/>
</svg>
